<?xml version="1.0" encoding="utf-8"?>
<!-- Generator: Adobe Illustrator 19.0.0, SVG Export Plug-In . SVG Version: 6.00 Build 0)  -->
<svg version="1.1" id="Layer_1" xmlns="https://www.w3.org/2000/svg" xmlns:xlink="http://www.w3.org/1999/xlink" x="0px" y="0px"
	 viewBox="0 0 700 389" style="enable-background:new 0 0 700 389;" xml:space="preserve">
<style type="text/css">
	.st0{fill:#F6E40C;}
	.st1{fill:#FFFFFF;}
</style>
<rect id="XMLID_1_" width="700" height="389"/>
<g id="XMLID_151_">
	<g id="XMLID_654_">
		<path id="XMLID_656_" class="st0" d="M569.6,205.6c-8.8,0-16.8,0-24.9,0c-9.5,0-18.9,0.2-28.4-0.1c-4.1-0.1-5.3,1.4-5.3,5.4
			c0.2,17.5-0.1,35.1,0.2,52.6c0.1,4.1-1.3,6.3-4.8,8.3c-20.1,11.6-40.1,23.3-60.1,35.1c-2.9,1.7-5.1,1.5-7.9-0.1
			c-20-11.8-40.1-23.4-60-35.3c-2-1.2-4.3-3.9-4.3-5.9c-0.3-26.1-0.2-52.2-0.2-78.3c0-0.6,0.2-1.1,0.5-2.3c2.1-0.1,4.4-0.3,6.6-0.3
			c15.2,0,30.5-0.2,45.7,0.1c4.5,0.1,6-1.3,5.9-5.9c-0.2-17.3,0-34.7-0.2-52c-0.1-4.2,1.1-6.7,4.8-8.9
			c20.1-11.5,40.1-23.4,60.2-34.9c1.9-1.1,5.3-1.1,7.1-0.1c20.5,11.7,40.8,23.6,61.1,35.7c1.7,1,3.7,3.3,3.7,5.1
			C569.6,150.7,569.6,177.6,569.6,205.6z M511.1,184.7c11.3,0,21.9-0.2,32.4,0.1c4.4,0.1,5.7-1.4,5.6-5.7c-0.2-13.6-0.2-27.3,0-40.9
			c0.1-3.8-1.2-6-4.5-7.8c-13.3-7.5-26.3-15.5-39.7-22.9c-2-1.1-5.7-1-7.7,0.1c-13.2,7.3-26,15.2-39.2,22.6c-3.5,2-4.7,4.3-4.7,8.3
			c0.2,25.9,0.1,51.8,0.1,77.8c0,15.7,0,15.6-15.8,15.2c-3.7-0.1-5.3-1.2-5.1-5c0.2-5.3-0.1-10.5,0.1-15.8c0.2-3.9-1.4-5.1-5.1-5
			c-9.1,0.2-18.1,0.2-27.2,0c-4.3-0.1-5.7,1.5-5.6,5.8c0.2,13.4,0.2,26.9,0,40.3c-0.1,4.2,1.5,6.3,4.9,8.2
			c13.1,7.5,26,15.3,39.2,22.6c2,1.1,5.7,1.1,7.7,0c13.2-7.3,26.1-15.2,39.2-22.6c3.6-2,4.6-4.4,4.6-8.3
			c-0.2-25.1-0.1-50.3-0.1-75.4c0-15.6,0-15.5,15.6-15.3c4.5,0,5.6,1.7,5.4,5.9C510.8,172.4,511.1,178.2,511.1,184.7z"/>
		<path id="XMLID_655_" class="st0" d="M488,80.8l-55.5,32.2V85.7c0-2.7,2.1-4.8,4.8-4.8H488z"/>
	</g>
	<g id="XMLID_635_">
		<g id="XMLID_652_">
			<path id="XMLID_653_" class="st1" d="M224.5,226.4c0,13.7-4.5,24.9-13.2,33.3c-8.7,8.4-20.4,12.7-34.7,12.7
				c-11.7,0-21.6-3.1-29.6-9.1c-8-6-13.4-14.7-16.2-25.7l-0.4-1.8l19.5-9.6l0.7,2.8c1.9,8.2,5.2,14.4,9.6,18.5
				c4.4,4.1,9.7,6.1,16.4,6.1c7.8,0,14.3-2.3,19.1-6.8c4.8-4.5,7.2-10.2,7.2-17.4c0-5.9-1.6-10.9-5-15.2c-3.4-4.4-8.7-8.2-15.7-11.2
				l-17.3-7.4c-9.8-4.1-17.2-9.5-22-16c-4.9-6.6-7.4-14.6-7.4-23.7c0-10.7,4.1-19.7,12.1-26.8c7.9-7,18.1-10.5,30.3-10.5
				c8.9,0,16.8,1.9,23.4,5.8c6.6,3.8,11.8,9.6,15.5,17l0.9,1.8l-17.7,11.3l-1.2-2c-3-5.2-6.4-9.1-10-11.6c-3.6-2.4-7.6-3.7-12.2-3.7
				c-5.8,0-10.4,1.7-14,5.2c-3.7,3.5-5.4,7.8-5.4,13.3c0,4.6,1.4,8.4,4.1,11.7c2.9,3.4,7.5,6.5,13.7,9.2l20.3,9
				c9.6,4.1,17,9.6,21.9,16.5C222,208.7,224.5,217,224.5,226.4z"/>
		</g>
	</g>
	<g id="XMLID_156_">
		<path id="XMLID_157_" class="st1" d="M321.8,240.8h-52.4l-12.5,31.6h-25.4l64.1-154.1l63.9,154.1h-25.2L321.8,240.8z M313.5,220.1
			l-17.9-44.9l-17.9,44.9H313.5z"/>
	</g>
</g>
</svg>
