<?xml version="1.0" encoding="utf-8"?>
<!-- Generator: Adobe Illustrator 19.0.0, SVG Export Plug-In . SVG Version: 6.00 Build 0)  -->
<svg version="1.1" id="Layer_1" xmlns="http://www.w3.org/2000/svg" xmlns:xlink="http://www.w3.org/1999/xlink" x="0px" y="0px"
	 viewBox="0 0 16 16" style="enable-background:new 0 0 16 16;" xml:space="preserve">
<style type="text/css">
	.st0{fill:#F6E40C;}
</style>
<rect id="XMLID_1_" width="16" height="16"/>
<g id="XMLID_654_">
	<path id="XMLID_656_" class="st0" d="M14,8.7c-0.5,0-1,0-1.5,0c-0.6,0-1.2,0-1.7,0c-0.2,0-0.3,0.1-0.3,0.3c0,1.1,0,2.1,0,3.2
		c0,0.2-0.1,0.4-0.3,0.5c-1.2,0.7-2.4,1.4-3.7,2.1C6.3,15,6.1,15,6,14.9c-1.2-0.7-2.4-1.4-3.7-2.2C2.2,12.6,2,12.5,2,12.3
		c0-1.6,0-3.2,0-4.8c0,0,0-0.1,0-0.1c0.1,0,0.3,0,0.4,0c0.9,0,1.9,0,2.8,0c0.3,0,0.4-0.1,0.4-0.4c0-1.1,0-2.1,0-3.2
		c0-0.3,0.1-0.4,0.3-0.5c1.2-0.7,2.4-1.4,3.7-2.1c0.1-0.1,0.3-0.1,0.4,0c1.3,0.7,2.5,1.4,3.7,2.2C13.8,3.4,14,3.6,14,3.7
		C14,5.3,14,7,14,8.7z M10.4,7.4c0.7,0,1.3,0,2,0c0.3,0,0.3-0.1,0.3-0.3c0-0.8,0-1.7,0-2.5c0-0.2-0.1-0.4-0.3-0.5
		c-0.8-0.5-1.6-0.9-2.4-1.4c-0.1-0.1-0.3-0.1-0.5,0C8.7,3.1,8,3.6,7.2,4.1C6.9,4.2,6.9,4.3,6.9,4.6c0,1.6,0,3.2,0,4.7c0,1,0,1-1,0.9
		c-0.2,0-0.3-0.1-0.3-0.3c0-0.3,0-0.6,0-1c0-0.2-0.1-0.3-0.3-0.3c-0.6,0-1.1,0-1.7,0C3.4,8.7,3.3,8.8,3.3,9c0,0.8,0,1.6,0,2.5
		c0,0.3,0.1,0.4,0.3,0.5c0.8,0.5,1.6,0.9,2.4,1.4c0.1,0.1,0.3,0.1,0.5,0C7.3,12.9,8,12.4,8.8,12c0.2-0.1,0.3-0.3,0.3-0.5
		c0-1.5,0-3.1,0-4.6c0-1,0-0.9,1-0.9c0.3,0,0.3,0.1,0.3,0.4C10.4,6.7,10.4,7,10.4,7.4z"/>
	<path id="XMLID_655_" class="st0" d="M9,1.1L5.6,3V1.4c0-0.2,0.1-0.3,0.3-0.3H9z"/>
</g>
</svg>
